<?xml version="1.0" encoding="utf-8"?>
<!-- Generator: Adobe Illustrator 25.2.1, SVG Export Plug-In . SVG Version: 6.00 Build 0)  -->
<svg version="1.1" id="レイヤー_1" xmlns="http://www.w3.org/2000/svg" xmlns:xlink="http://www.w3.org/1999/xlink" x="0px"
	 y="0px" viewBox="0 0 333 30" style="enable-background:new 0 0 333 30;" xml:space="preserve">
<desc>Created with Sketch.</desc>
<g>
	<path d="M14.6,19.2v10c0,0.1,0,0.3-0.1,0.4c-0.1,0.1-0.3,0.2-0.5,0.3s-0.5,0.1-0.9,0.2c-0.4,0-0.8,0.1-1.4,0.1c-0.6,0-1,0-1.4-0.1
		c-0.4,0-0.7-0.1-0.9-0.2c-0.2-0.1-0.4-0.2-0.5-0.3s-0.1-0.2-0.1-0.4v-10L1,3.7c-0.3-0.5-0.5-1-0.5-1.3c-0.1-0.3,0-0.5,0.1-0.7
		c0.2-0.2,0.5-0.2,0.9-0.3c0.5,0,1.1-0.1,1.9-0.1c0.7,0,1.2,0,1.6,0c0.4,0,0.7,0.1,1,0.2C6.2,1.7,6.4,1.8,6.5,2
		c0.1,0.1,0.2,0.3,0.3,0.5l3.2,7c0.3,0.7,0.6,1.4,0.9,2.1s0.6,1.5,0.9,2.4h0c0.3-0.8,0.6-1.6,0.9-2.3s0.6-1.5,0.9-2.1l3.1-6.9
		C16.8,2.3,16.9,2.1,17,2c0.1-0.1,0.3-0.3,0.5-0.3s0.5-0.1,0.9-0.2s0.9,0,1.5,0c0.8,0,1.5,0,1.9,0.1c0.5,0,0.8,0.1,0.9,0.3
		c0.2,0.2,0.2,0.4,0.1,0.7c-0.1,0.3-0.3,0.7-0.5,1.3L14.6,19.2z"/>
	<path d="M50.8,19.4c0,1.7-0.3,3.3-0.8,4.7s-1.3,2.5-2.3,3.5s-2.2,1.7-3.7,2.2c-1.5,0.5-3.1,0.7-5.1,0.7c-1.8,0-3.4-0.2-4.8-0.7
		c-1.4-0.4-2.6-1.1-3.6-2s-1.7-2-2.3-3.4c-0.5-1.4-0.8-2.9-0.8-4.8V2.4c0-0.1,0-0.3,0.1-0.4s0.2-0.2,0.5-0.3
		c0.2-0.1,0.5-0.1,0.9-0.2c0.4,0,0.8-0.1,1.4-0.1c0.6,0,1,0,1.4,0.1c0.4,0,0.7,0.1,0.9,0.2s0.4,0.2,0.5,0.3s0.1,0.2,0.1,0.4v16.8
		c0,1.1,0.1,2.1,0.4,2.9c0.3,0.8,0.7,1.5,1.2,2.1c0.5,0.5,1.1,0.9,1.9,1.2c0.7,0.3,1.5,0.4,2.4,0.4c0.9,0,1.7-0.1,2.4-0.4
		s1.3-0.7,1.8-1.2c0.5-0.5,0.9-1.2,1.2-2c0.3-0.8,0.4-1.7,0.4-2.7V2.4c0-0.1,0-0.3,0.1-0.4s0.2-0.2,0.5-0.3s0.5-0.1,0.9-0.2
		c0.4,0,0.8-0.1,1.4-0.1s1,0,1.4,0.1c0.4,0,0.6,0.1,0.9,0.2s0.4,0.2,0.5,0.3s0.1,0.2,0.1,0.4V19.4z"/>
	<path d="M63.8,29.2c0,0.1,0,0.3-0.1,0.4s-0.3,0.2-0.5,0.3s-0.5,0.1-0.9,0.2c-0.4,0-0.8,0.1-1.4,0.1c-0.6,0-1,0-1.4-0.1
		c-0.4,0-0.7-0.1-0.9-0.2s-0.4-0.2-0.5-0.3c-0.1-0.1-0.1-0.2-0.1-0.4V2.4c0-0.1,0-0.3,0.1-0.4c0.1-0.1,0.3-0.2,0.5-0.3
		c0.2-0.1,0.5-0.1,0.9-0.2c0.4,0,0.8-0.1,1.4-0.1c0.6,0,1,0,1.4,0.1c0.4,0,0.7,0.1,0.9,0.2s0.4,0.2,0.5,0.3s0.1,0.2,0.1,0.4V29.2z"
		/>
	<path d="M90.8,25.7c0,0.4,0,0.7,0,0.9c0,0.3-0.1,0.5-0.1,0.7c0,0.2-0.1,0.3-0.2,0.5s-0.2,0.3-0.4,0.5c-0.2,0.2-0.5,0.4-0.9,0.6
		c-0.5,0.3-1,0.5-1.7,0.8c-0.7,0.2-1.4,0.4-2.3,0.6c-0.9,0.2-1.8,0.2-2.8,0.2c-1.9,0-3.7-0.3-5.3-0.9s-2.9-1.5-4-2.7
		c-1.1-1.2-1.9-2.7-2.5-4.5s-0.9-3.9-0.9-6.2c0-2.4,0.3-4.6,1-6.4c0.6-1.9,1.5-3.4,2.7-4.7s2.5-2.2,4.2-2.9c1.6-0.7,3.4-1,5.4-1
		c0.8,0,1.6,0.1,2.3,0.2s1.4,0.3,2,0.5c0.6,0.2,1.2,0.5,1.7,0.7s0.8,0.5,1,0.7c0.2,0.2,0.3,0.4,0.4,0.5s0.1,0.3,0.2,0.5
		c0,0.2,0.1,0.4,0.1,0.7c0,0.3,0,0.6,0,1c0,0.4,0,0.8,0,1.1s-0.1,0.6-0.2,0.7s-0.2,0.3-0.3,0.4S90,8.4,89.9,8.4
		c-0.2,0-0.5-0.1-0.8-0.4c-0.3-0.3-0.8-0.5-1.3-0.9c-0.5-0.3-1.2-0.6-1.9-0.9C85.1,6.1,84.2,6,83.2,6c-1.1,0-2.1,0.2-3,0.7
		c-0.9,0.5-1.6,1.1-2.3,2c-0.6,0.9-1.1,1.9-1.4,3.1C76.1,13,76,14.3,76,15.8c0,1.7,0.2,3.1,0.5,4.3c0.3,1.2,0.8,2.2,1.5,3
		c0.6,0.8,1.4,1.4,2.3,1.8c0.9,0.4,1.9,0.6,3,0.6c1,0,1.9-0.1,2.7-0.4c0.7-0.2,1.4-0.5,1.9-0.8c0.5-0.3,1-0.6,1.3-0.8
		c0.3-0.2,0.6-0.4,0.8-0.4c0.1,0,0.3,0,0.4,0.1c0.1,0.1,0.2,0.2,0.2,0.4s0.1,0.4,0.1,0.7C90.7,24.7,90.8,25.2,90.8,25.7z"/>
	<path d="M118.2,29.2c0,0.1,0,0.3-0.1,0.4s-0.3,0.2-0.5,0.3s-0.5,0.1-0.9,0.2c-0.4,0-0.8,0.1-1.4,0.1c-0.6,0-1,0-1.4-0.1
		c-0.4,0-0.7-0.1-0.9-0.2c-0.2-0.1-0.4-0.2-0.5-0.3s-0.1-0.2-0.1-0.4V17.7h-10.6v11.5c0,0.1,0,0.3-0.1,0.4s-0.2,0.2-0.5,0.3
		s-0.5,0.1-0.9,0.2c-0.4,0-0.8,0.1-1.4,0.1c-0.6,0-1,0-1.4-0.1c-0.4,0-0.7-0.1-0.9-0.2s-0.4-0.2-0.5-0.3C96,29.5,96,29.4,96,29.2
		V2.4c0-0.1,0-0.3,0.1-0.4c0.1-0.1,0.3-0.2,0.5-0.3s0.5-0.1,0.9-0.2c0.4,0,0.8-0.1,1.4-0.1c0.6,0,1,0,1.4,0.1c0.4,0,0.7,0.1,0.9,0.2
		s0.4,0.2,0.5,0.3s0.1,0.2,0.1,0.4v10.4h10.6V2.4c0-0.1,0-0.3,0.1-0.4s0.2-0.2,0.5-0.3c0.2-0.1,0.5-0.1,0.9-0.2
		c0.4,0,0.8-0.1,1.4-0.1c0.6,0,1,0,1.4,0.1c0.4,0,0.7,0.1,0.9,0.2s0.4,0.2,0.5,0.3s0.1,0.2,0.1,0.4V29.2z"/>
	<path d="M131.3,29.2c0,0.1,0,0.3-0.1,0.4s-0.3,0.2-0.5,0.3s-0.5,0.1-0.9,0.2c-0.4,0-0.8,0.1-1.4,0.1c-0.6,0-1,0-1.4-0.1
		c-0.4,0-0.7-0.1-0.9-0.2s-0.4-0.2-0.5-0.3c-0.1-0.1-0.1-0.2-0.1-0.4V2.4c0-0.1,0-0.3,0.1-0.4c0.1-0.1,0.3-0.2,0.5-0.3
		c0.2-0.1,0.5-0.1,0.9-0.2c0.4,0,0.8-0.1,1.4-0.1c0.6,0,1,0,1.4,0.1c0.4,0,0.7,0.1,0.9,0.2s0.4,0.2,0.5,0.3s0.1,0.2,0.1,0.4V29.2z"
		/>
	<path d="M173.2,28c0,0.3-0.1,0.6-0.2,0.9s-0.3,0.5-0.5,0.7s-0.4,0.3-0.7,0.4c-0.3,0.1-0.5,0.1-0.8,0.1h-2.5c-0.5,0-1-0.1-1.3-0.2
		c-0.4-0.1-0.7-0.3-1-0.6c-0.3-0.3-0.6-0.6-0.9-1.1c-0.3-0.5-0.6-1.1-1-1.8l-7.1-13.3c-0.4-0.8-0.8-1.6-1.3-2.6
		c-0.4-0.9-0.8-1.8-1.1-2.7h0c0.1,1.1,0.1,2.1,0.1,3.2c0,1,0,2.1,0,3.2v14.9c0,0.1,0,0.3-0.1,0.4c-0.1,0.1-0.2,0.2-0.4,0.3
		c-0.2,0.1-0.5,0.1-0.8,0.2c-0.3,0-0.8,0.1-1.3,0.1c-0.5,0-0.9,0-1.3-0.1c-0.3,0-0.6-0.1-0.8-0.2c-0.2-0.1-0.3-0.2-0.4-0.3
		c-0.1-0.1-0.1-0.2-0.1-0.4V3.6c0-0.7,0.2-1.2,0.6-1.5c0.4-0.3,0.9-0.5,1.5-0.5h3.1c0.6,0,1,0,1.4,0.1c0.4,0.1,0.7,0.3,1,0.5
		c0.3,0.2,0.6,0.5,0.8,0.9c0.3,0.4,0.5,0.9,0.8,1.4l5.5,10.4c0.3,0.6,0.6,1.2,1,1.9c0.3,0.6,0.6,1.2,0.9,1.8
		c0.3,0.6,0.6,1.2,0.9,1.8c0.3,0.6,0.5,1.2,0.8,1.8h0c0-1-0.1-2.1-0.1-3.2c0-1.1,0-2.2,0-3.2V2.4c0-0.1,0-0.3,0.1-0.4
		s0.2-0.2,0.4-0.3s0.5-0.1,0.8-0.2c0.3,0,0.8-0.1,1.3-0.1c0.5,0,0.9,0,1.3,0.1c0.3,0,0.6,0.1,0.8,0.2c0.2,0.1,0.3,0.2,0.4,0.3
		c0.1,0.1,0.1,0.2,0.1,0.4V28z"/>
	<path d="M206.1,15.5c0,2.4-0.3,4.5-0.9,6.3s-1.5,3.4-2.6,4.7c-1.2,1.3-2.6,2.3-4.3,3c-1.7,0.7-3.7,1-5.9,1c-2.2,0-4.1-0.3-5.8-0.9
		c-1.6-0.6-3-1.5-4.1-2.6c-1.1-1.2-1.9-2.7-2.5-4.5c-0.5-1.8-0.8-4-0.8-6.5c0-2.3,0.3-4.4,0.9-6.2c0.6-1.8,1.5-3.4,2.6-4.7
		c1.2-1.3,2.6-2.3,4.3-3c1.7-0.7,3.7-1,5.9-1c2.2,0,4.1,0.3,5.7,0.9c1.6,0.6,3,1.5,4.1,2.6c1.1,1.2,1.9,2.7,2.5,4.5
		C205.8,10.9,206.1,13,206.1,15.5z M200,15.8c0-1.5-0.1-2.9-0.4-4.1c-0.2-1.2-0.6-2.3-1.2-3.1c-0.6-0.9-1.3-1.5-2.3-2
		c-0.9-0.5-2.1-0.7-3.5-0.7c-1.4,0-2.6,0.3-3.6,0.8c-1,0.5-1.7,1.2-2.3,2.1c-0.6,0.9-1,1.9-1.2,3.1c-0.2,1.2-0.4,2.5-0.4,3.8
		c0,1.6,0.1,2.9,0.4,4.2c0.2,1.2,0.6,2.3,1.2,3.2s1.3,1.5,2.2,2c0.9,0.5,2.1,0.7,3.5,0.7s2.6-0.3,3.6-0.8c1-0.5,1.7-1.2,2.3-2.2
		s1-2,1.2-3.2C199.9,18.4,200,17.1,200,15.8z"/>
	<path d="M234.8,6c0,0.4,0,0.8-0.1,1.1c0,0.3-0.1,0.6-0.2,0.7c-0.1,0.2-0.1,0.3-0.2,0.4c-0.1,0.1-0.2,0.1-0.3,0.1
		c-0.2,0-0.5-0.1-0.9-0.4s-1-0.5-1.7-0.9s-1.5-0.6-2.5-0.9c-1-0.3-2.1-0.4-3.4-0.4c-1.4,0-2.6,0.2-3.7,0.7c-1.1,0.5-2.1,1.1-2.9,2
		c-0.8,0.9-1.4,1.9-1.8,3.1c-0.4,1.2-0.6,2.6-0.6,4.1c0,1.6,0.2,3.1,0.6,4.3c0.4,1.2,1,2.3,1.8,3.1c0.8,0.8,1.7,1.5,2.8,1.9
		c1.1,0.4,2.3,0.6,3.6,0.6c0.6,0,1.3-0.1,1.9-0.2c0.6-0.1,1.2-0.4,1.8-0.7v-6.6h-5.4c-0.3,0-0.5-0.2-0.6-0.5
		c-0.1-0.3-0.2-0.9-0.2-1.7c0-0.4,0-0.8,0.1-1c0-0.3,0.1-0.5,0.2-0.7c0.1-0.2,0.2-0.3,0.3-0.4c0.1-0.1,0.2-0.1,0.4-0.1h9.6
		c0.2,0,0.4,0,0.6,0.1c0.2,0.1,0.3,0.2,0.5,0.4c0.1,0.2,0.2,0.4,0.3,0.6c0.1,0.2,0.1,0.5,0.1,0.8V27c0,0.4-0.1,0.8-0.2,1.2
		c-0.2,0.3-0.5,0.6-0.9,0.8c-0.5,0.2-1.1,0.4-1.8,0.6s-1.4,0.4-2.2,0.5c-0.8,0.1-1.5,0.3-2.3,0.3c-0.8,0.1-1.5,0.1-2.3,0.1
		c-2.3,0-4.3-0.3-6.1-1c-1.8-0.7-3.3-1.6-4.6-2.8c-1.2-1.2-2.2-2.7-2.9-4.5c-0.7-1.8-1-3.8-1-6.1c0-2.3,0.4-4.4,1.1-6.3
		c0.7-1.9,1.7-3.4,3-4.7c1.3-1.3,2.8-2.3,4.7-3c1.8-0.7,3.9-1,6.1-1c1.2,0,2.4,0.1,3.4,0.3c1,0.2,1.9,0.4,2.6,0.6
		c0.8,0.2,1.4,0.5,1.9,0.8s0.8,0.5,1,0.7c0.2,0.2,0.3,0.5,0.4,0.9C234.8,4.7,234.8,5.3,234.8,6z"/>
	<path d="M265,19.4c0,1.7-0.3,3.3-0.8,4.7s-1.3,2.5-2.3,3.5c-1,1-2.2,1.7-3.7,2.2c-1.5,0.5-3.2,0.7-5.1,0.7c-1.8,0-3.4-0.2-4.8-0.7
		c-1.4-0.4-2.6-1.1-3.6-2s-1.7-2-2.3-3.4c-0.5-1.4-0.8-2.9-0.8-4.8V2.4c0-0.1,0-0.3,0.1-0.4s0.2-0.2,0.5-0.3
		c0.2-0.1,0.5-0.1,0.9-0.2c0.4,0,0.8-0.1,1.4-0.1c0.6,0,1,0,1.4,0.1c0.4,0,0.7,0.1,0.9,0.2c0.2,0.1,0.4,0.2,0.5,0.3
		c0.1,0.1,0.1,0.2,0.1,0.4v16.8c0,1.1,0.1,2.1,0.4,2.9c0.3,0.8,0.7,1.5,1.2,2.1c0.5,0.5,1.1,0.9,1.9,1.2c0.7,0.3,1.5,0.4,2.4,0.4
		c0.9,0,1.7-0.1,2.4-0.4c0.7-0.3,1.3-0.7,1.8-1.2c0.5-0.5,0.9-1.2,1.2-2c0.3-0.8,0.4-1.7,0.4-2.7V2.4c0-0.1,0-0.3,0.1-0.4
		s0.2-0.2,0.5-0.3s0.5-0.1,0.9-0.2c0.4,0,0.8-0.1,1.4-0.1s1,0,1.4,0.1c0.4,0,0.6,0.1,0.9,0.2s0.4,0.2,0.5,0.3s0.1,0.2,0.1,0.4V19.4z
		"/>
	<path d="M291.9,25.7c0,0.4,0,0.7,0,0.9c0,0.3-0.1,0.5-0.1,0.7c0,0.2-0.1,0.3-0.2,0.5s-0.2,0.3-0.4,0.5c-0.2,0.2-0.5,0.4-0.9,0.6
		c-0.5,0.3-1,0.5-1.7,0.8c-0.7,0.2-1.4,0.4-2.3,0.6c-0.9,0.2-1.8,0.2-2.8,0.2c-1.9,0-3.7-0.3-5.3-0.9s-2.9-1.5-4-2.7
		c-1.1-1.2-1.9-2.7-2.5-4.5c-0.6-1.8-0.9-3.9-0.9-6.2c0-2.4,0.3-4.6,1-6.4c0.6-1.9,1.5-3.4,2.7-4.7s2.5-2.2,4.2-2.9
		c1.6-0.7,3.4-1,5.4-1c0.8,0,1.6,0.1,2.3,0.2c0.7,0.1,1.4,0.3,2,0.5c0.6,0.2,1.2,0.5,1.7,0.7s0.8,0.5,1,0.7c0.2,0.2,0.3,0.4,0.4,0.5
		s0.1,0.3,0.2,0.5c0,0.2,0.1,0.4,0.1,0.7c0,0.3,0,0.6,0,1c0,0.4,0,0.8,0,1.1s-0.1,0.6-0.2,0.7c-0.1,0.2-0.2,0.3-0.3,0.4
		c-0.1,0.1-0.2,0.1-0.4,0.1c-0.2,0-0.5-0.1-0.8-0.4c-0.3-0.3-0.8-0.5-1.3-0.9c-0.5-0.3-1.2-0.6-1.9-0.9c-0.7-0.3-1.6-0.4-2.6-0.4
		c-1.1,0-2.1,0.2-3,0.7c-0.9,0.5-1.6,1.1-2.3,2c-0.6,0.9-1.1,1.9-1.4,3.1c-0.3,1.2-0.5,2.6-0.5,4.1c0,1.7,0.2,3.1,0.5,4.3
		c0.3,1.2,0.8,2.2,1.5,3c0.6,0.8,1.4,1.4,2.3,1.8c0.9,0.4,1.9,0.6,3,0.6c1,0,1.9-0.1,2.7-0.4c0.7-0.2,1.4-0.5,1.9-0.8
		c0.5-0.3,1-0.6,1.3-0.8c0.3-0.2,0.6-0.4,0.8-0.4c0.1,0,0.3,0,0.4,0.1c0.1,0.1,0.2,0.2,0.2,0.4s0.1,0.4,0.1,0.7
		C291.9,24.7,291.9,25.2,291.9,25.7z"/>
	<path d="M319.3,29.2c0,0.1,0,0.3-0.1,0.4c-0.1,0.1-0.3,0.2-0.5,0.3c-0.2,0.1-0.5,0.1-0.9,0.2c-0.4,0-0.8,0.1-1.4,0.1
		c-0.6,0-1,0-1.4-0.1c-0.4,0-0.7-0.1-0.9-0.2c-0.2-0.1-0.4-0.2-0.5-0.3c-0.1-0.1-0.1-0.2-0.1-0.4V17.7h-10.6v11.5
		c0,0.1,0,0.3-0.1,0.4s-0.2,0.2-0.5,0.3c-0.2,0.1-0.5,0.1-0.9,0.2c-0.4,0-0.8,0.1-1.4,0.1c-0.6,0-1,0-1.4-0.1
		c-0.4,0-0.7-0.1-0.9-0.2c-0.2-0.1-0.4-0.2-0.5-0.3c-0.1-0.1-0.1-0.2-0.1-0.4V2.4c0-0.1,0-0.3,0.1-0.4c0.1-0.1,0.3-0.2,0.5-0.3
		c0.2-0.1,0.5-0.1,0.9-0.2c0.4,0,0.8-0.1,1.4-0.1c0.6,0,1,0,1.4,0.1c0.4,0,0.7,0.1,0.9,0.2c0.2,0.1,0.4,0.2,0.5,0.3s0.1,0.2,0.1,0.4
		v10.4h10.6V2.4c0-0.1,0-0.3,0.1-0.4c0.1-0.1,0.2-0.2,0.5-0.3c0.2-0.1,0.5-0.1,0.9-0.2c0.4,0,0.8-0.1,1.4-0.1c0.6,0,1,0,1.4,0.1
		c0.4,0,0.7,0.1,0.9,0.2c0.2,0.1,0.4,0.2,0.5,0.3c0.1,0.1,0.1,0.2,0.1,0.4V29.2z"/>
	<path d="M332.4,29.2c0,0.1,0,0.3-0.1,0.4c-0.1,0.1-0.3,0.2-0.5,0.3c-0.2,0.1-0.5,0.1-0.9,0.2c-0.4,0-0.8,0.1-1.4,0.1
		c-0.6,0-1,0-1.4-0.1c-0.4,0-0.7-0.1-0.9-0.2c-0.2-0.1-0.4-0.2-0.5-0.3c-0.1-0.1-0.1-0.2-0.1-0.4V2.4c0-0.1,0-0.3,0.1-0.4
		c0.1-0.1,0.3-0.2,0.5-0.3c0.2-0.1,0.5-0.1,0.9-0.2c0.4,0,0.8-0.1,1.4-0.1c0.6,0,1,0,1.4,0.1c0.4,0,0.7,0.1,0.9,0.2
		c0.2,0.1,0.4,0.2,0.5,0.3c0.1,0.1,0.1,0.2,0.1,0.4V29.2z"/>
</g>
</svg>
